<svg id="Layer_1" data-name="Layer 1" xmlns="http://www.w3.org/2000/svg" viewBox="0 0 577.2 723.25"><defs><style>.cls-1{fill:#8c6239;}.cls-2{fill:#754c24;}.cls-3{fill:#603813;}.cls-4{fill:#a67c52;}.cls-5{fill:#333;}.cls-6{fill:#405a7f;}.cls-7{fill:#4d4d4d;}.cls-8{fill:#2f455b;}.cls-9{fill:#f8c09d;}.cls-10{fill:#f2f2f2;}.cls-11{fill:#fff;}.cls-12{fill:#bf844f;}.cls-13{fill:#a06d42;}.cls-14{fill:none;stroke:#8c6239;stroke-linecap:round;stroke-miterlimit:10;stroke-width:4.53px;}</style></defs><title>Black_Man_Working_at_his_Laptop_on_the_Couch_Cartoon_Vector</title><path class="cls-1" d="M385.14,487.14H52.84V298.64a78.19,78.19,0,0,1,78.2-78.2h175.9a78.19,78.19,0,0,1,78.2,78.2Z" transform="translate(1.96 -1.19)"/><rect class="cls-2" x="387.1" y="405.25" width="119.1" height="146"/><polygon class="cls-3" points="448.6 525.75 142.4 525.75 142.4 485.95 387.1 485.95 448.6 525.75"/><rect class="cls-1" x="142.4" y="554.75" width="305.9" height="34.4"/><path class="cls-1" d="M213.74,683.34H40.54c-12.5,0-22.6-30.1-22.6-42.6V462.14h195.7v221.2Z" transform="translate(1.96 -1.19)"/><path class="cls-1" d="M445.64,683.34h48.8a22.58,22.58,0,0,0,22.6-22.6v-202h-71.3v224.6Z" transform="translate(1.96 -1.19)"/><circle class="cls-1" cx="505.2" cy="462.95" r="58.4"/><path class="cls-3" d="M102.64,710.44h0a16.09,16.09,0,0,1-16.1-16.1v-11h32.2v11A16.09,16.09,0,0,1,102.64,710.44Z" transform="translate(1.96 -1.19)"/><path class="cls-3" d="M484.14,710.44h0a16.09,16.09,0,0,1-16.1-16.1v-11h32.2v11A16.09,16.09,0,0,1,484.14,710.44Z" transform="translate(1.96 -1.19)"/><rect class="cls-4" x="215.5" y="525.35" width="232.7" height="45.6"/><rect class="cls-2" x="215.5" y="582.05" width="232.7" height="100.1"/><rect class="cls-3" x="215.5" y="570.95" width="232.7" height="11.1"/><rect class="cls-5" x="171.3" y="462.35" width="141.5" height="29.7"/><path class="cls-6" d="M192.74,255.94h84.1a33.93,33.93,0,0,1,33.9,33.9v173.6h-152V289.84A34,34,0,0,1,192.74,255.94Z" transform="translate(1.96 -1.19)"/><path class="cls-2" d="M407.94,685.44l10,39h81.3a27.68,27.68,0,0,0-22.9-21.5c-19.8-3.6-36.6,7.7-36.6,7.7l-13-25.2Z" transform="translate(1.96 -1.19)"/><path class="cls-2" d="M483.94,685.44l10,39h81.3a27.68,27.68,0,0,0-22.9-21.5c-19.8-3.6-36.6,7.7-36.6,7.7l-15.2-29.5Z" transform="translate(1.96 -1.19)"/><path class="cls-5" d="M347.64,480.34l-96.3-10.1-8.8,28.6a20.52,20.52,0,0,0,13.6,25.7l118.5,7.7,97.8,158.9,39.6-11.5-89.2-150.2c-15.8-28.8-29-43.9-53.5-46.6Z" transform="translate(1.96 -1.19)"/><path class="cls-7" d="M275.74,480.84,169,470.24l-1.1,28.6c-.9,14.1,2.7,22.4,13.6,25.7l118.5,7.7,104.1,170,40-10.6-95.9-162.2c-11-21.3-12.7-36.2-46-45.7Z" transform="translate(1.96 -1.19)"/><path class="cls-8" d="M155.34,306.94l18.7-5.1s4.7,40.8,28.6,60.9c10.4,8.8,30.9,9.5,43.8,8.8,31.8-1.7,64.2-16.8,64.2-16.8l-.2,109.6-151.6-.2Z" transform="translate(1.96 -1.19)"/><path class="cls-6" d="M334.84,420.34h0a18.43,18.43,0,0,1-21-15.4l-18.5-120.7a18.43,18.43,0,0,1,15.4-21h0c10.1-1.5,18.9,11,22.1,25.7l17.4,110.4A18.29,18.29,0,0,1,334.84,420.34Z" transform="translate(1.96 -1.19)"/><path class="cls-6" d="M275,392.54h0a18.49,18.49,0,0,1,23.4-11.6l98.3,33.2-11.8,35-98.3-33.2A18.41,18.41,0,0,1,275,392.54Z" transform="translate(1.96 -1.19)"/><path class="cls-9" d="M386.14,445a140.58,140.58,0,0,1,16.7,10.9c9,6.8,10.1,7.6,13.2,9.2s8.7-3,2-8.9-4.3-6.5-.4-4.1a21.86,21.86,0,0,1,9.9,12.3c2.2,6.5,7.1,11.3,10.2,6.8s-.4-8.5-.4-8.5,5,3.9,7.3,0,0-10.4-1.8-13.7c0,0,4.1-3.7-.6-8.1s-11.6-13.4-17.4-17.5-30.8-1.1-30.8-1.1Z" transform="translate(1.96 -1.19)"/><path class="cls-6" d="M173.64,423.34h0a18.43,18.43,0,0,1-21-15.4l-18.5-120.7a18.43,18.43,0,0,1,15.4-21h0a18.43,18.43,0,0,1,21,15.4L189,402.34A18.29,18.29,0,0,1,173.64,423.34Z" transform="translate(1.96 -1.19)"/><path class="cls-6" d="M143.64,268.14a112.44,112.44,0,0,1,49-12.2c18.1-.3-27.7,27.7-27.7,27.7Z" transform="translate(1.96 -1.19)"/><path class="cls-6" d="M157,406.74h0a18.47,18.47,0,0,1,21.9-14.2l101.4,21.9-7.8,36.1-101.4-21.8A18.51,18.51,0,0,1,157,406.74Z" transform="translate(1.96 -1.19)"/><path class="cls-9" d="M273.34,446.34a159.24,159.24,0,0,1,17.9,9c9.8,5.7,10.9,6.4,14.1,7.7s8.3-4,1-9.1-5-5.9-.8-4a21.43,21.43,0,0,1,11.2,11.1c2.9,6.2,8.3,10.4,10.9,5.6a7,7,0,0,0-1.3-8.4s5.4,3.3,7.3-.9-1.2-10.3-3.3-13.4c0,0,3.7-4.1-1.5-8s-13.1-12-19.3-15.4-30.7,2.4-30.7,2.4Z" transform="translate(1.96 -1.19)"/><path class="cls-6" d="M278.24,256.44s36.4-2.8,45.9,13.2c8.6,14.3-17.8,22.3-17.8,22.3Z" transform="translate(1.96 -1.19)"/><path class="cls-10" d="M444.44,485.54H210.34a5.48,5.48,0,0,1-5.5-5.5h0a5.48,5.48,0,0,1,5.5-5.5h234.1a5.48,5.48,0,0,1,5.5,5.5h0A5.55,5.55,0,0,1,444.44,485.54Z" transform="translate(1.96 -1.19)"/><path class="cls-10" d="M458,485.54H268.84a6.12,6.12,0,0,1-6.1-6.1l20.2-133.5a6.12,6.12,0,0,1,6.1-6.1h189.1a6.12,6.12,0,0,1,6.1,6.1L464,479.44A6,6,0,0,1,458,485.54Z" transform="translate(1.96 -1.19)"/><path class="cls-11" d="M268.64,485.24l20.1-133.8c0-3.3,3.4-7,6.7-7h188.7a6.48,6.48,0,0,0-6-5H288.94a7,7,0,0,0-6.6,6.5l-20.1,133.5c0,3.3,3.3,6,6.6,6h.5S268.64,485.34,268.64,485.24Z" transform="translate(1.96 -1.19)"/><circle class="cls-11" cx="385.2" cy="411.55" r="20.4"/><circle class="cls-4" cx="179" cy="463.65" r="58.4"/><path class="cls-4" d="M35.24,480.84h141.9v-74.4H35.24A37.19,37.19,0,0,0-2,443.64h0A37.19,37.19,0,0,0,35.24,480.84Z" transform="translate(1.96 -1.19)"/><path class="cls-12" d="M270.24,260.84a24.5,24.5,0,0,1-24.3,24.5h-.2a24.67,24.67,0,0,1-24.5-24.5v-21.5h49Z" transform="translate(1.96 -1.19)"/><path class="cls-13" d="M221.24,255.24a73.52,73.52,0,0,0,28.9,6.3,70.65,70.65,0,0,0,20.1-3.1v-15.5h-49Z" transform="translate(1.96 -1.19)"/><path class="cls-3" d="M358.54,109.24a23.09,23.09,0,0,0-18.9-18.3,30.08,30.08,0,0,0,5.5-24,30.4,30.4,0,0,0-33-24.6,27.44,27.44,0,0,0,0-10.3,26.95,26.95,0,0,0-48.6-10.3v-.2a25.06,25.06,0,0,0-47.8-4.8,29.06,29.06,0,0,0-46.9,20.2,29.07,29.07,0,0,0-38.4,32.8,25.45,25.45,0,0,0,1.9,6.1,30.84,30.84,0,0,0-4.2,59.3,22.58,22.58,0,0,0,9.7,39.7,18.53,18.53,0,0,0-1.6,12.1,19.37,19.37,0,0,0,20.9,15.6,19.43,19.43,0,0,0,0,7.6,19.94,19.94,0,0,0,38.6,2.2,93.54,93.54,0,0,0,105.4-20.6,20.63,20.63,0,0,0,37.2-15.7,24.61,24.61,0,0,0-1.9-5.6l1.8-.3a23.41,23.41,0,0,0,12.5-39.2A22.68,22.68,0,0,0,358.54,109.24Z" transform="translate(1.96 -1.19)"/><path class="cls-12" d="M251.64,251.74c-34.9,0-76.8-30.5-76.8-73.2v-66.2a62.42,62.42,0,0,1,62.4-62.4h29.4a62.42,62.42,0,0,1,62.4,62.4v66.2C328.84,221.24,298.54,251.74,251.64,251.74Z" transform="translate(1.96 -1.19)"/><rect class="cls-3" x="158.6" y="105.85" width="36.3" height="39"/><circle class="cls-12" cx="176.4" cy="142.65" r="21.9"/><path class="cls-1" d="M170,146.94a7.81,7.81,0,0,1,7.8-7.8,8.84,8.84,0,0,1,3.3.7,7.73,7.73,0,0,0-6.7-3.8,7.81,7.81,0,0,0-7.8,7.8,7.62,7.62,0,0,0,4.5,7A7.39,7.39,0,0,1,170,146.94Z" transform="translate(1.96 -1.19)"/><ellipse class="cls-5" cx="255.4" cy="145.25" rx="5" ry="8.8"/><ellipse class="cls-5" cx="318.9" cy="145.25" rx="5" ry="8.8"/><path class="cls-1" d="M280.34,155.54v15.9c0,.7.9,1.3,1.6,1.3h9.4a3,3,0,0,0,2.3-4.9l-10.9-13A1.34,1.34,0,0,0,280.34,155.54Z" transform="translate(1.96 -1.19)"/><path class="cls-14" d="M259.84,181.54a24.75,24.75,0,0,0,24.7,24.7h0a24.75,24.75,0,0,0,24.7-24.7" transform="translate(1.96 -1.19)"/><path class="cls-3" d="M333,85.34v-8.5a30.39,30.39,0,0,0-30.4-30.4h-97.1a30.39,30.39,0,0,0-30.4,30.4v23.3a12.14,12.14,0,0,0,0,8.4l3.4,6.5c5.5,6,15.2,7.2,23.4,2.5,7.8-4.5,11.6-12.9,9.9-20.4l1.9-1a19.88,19.88,0,0,0,9.4,2.4,19.48,19.48,0,0,0,18.6-13.7c3.2,9,12.5,15.5,23.4,15.5a25.16,25.16,0,0,0,19.8-9.2,28.58,28.58,0,0,0,12.6,16.8c12.2,7.7,27.4,5.7,33.9-4.4C334.84,98.14,335,91.54,333,85.34Z" transform="translate(1.96 -1.19)"/></svg>